<svg data-name="Layer 1" xmlns="http://www.w3.org/2000/svg" viewBox="0 0 980.03 955.2"><path d="M214.2,357.8c98.7,0,179-80.3,179-178.9S312.9,0,214.2,0,35.3,80.3,35.3,178.9,115.5,357.8,214.2,357.8Zm0-300.3A121.3,121.3,0,1,1,92.9,178.8,121.42,121.42,0,0,1,214.2,57.5Z" transform="translate(0 0)"></path><path d="M149.2,178.8l-.1-3.8a8.75,8.75,0,0,1,.3-3.5,14.41,14.41,0,0,0-28.3-5.5,37.72,37.72,0,0,0-.8,9.9l.1,2.9a14.4,14.4,0,1,0,28.8,0Z" transform="translate(0 0)"></path><path d="M140.2,146.7a14.91,14.91,0,0,0,8,2.4,14.39,14.39,0,0,0,12-6.4,65,65,0,0,1,54-28.8,14.4,14.4,0,0,0,0-28.8,93.7,93.7,0,0,0-77.9,41.6A14.44,14.44,0,0,0,140.2,146.7Z" transform="translate(0 0)"></path><path d="M617.7,357.8c98.7,0,179-80.3,179-178.9S716.4,0,617.7,0,438.8,80.3,438.8,178.9,519,357.8,617.7,357.8Zm0-300.3A121.3,121.3,0,1,1,496.4,178.8,121.42,121.42,0,0,1,617.7,57.5Z" transform="translate(0 0)"></path><path d="M543.7,146.7a14.91,14.91,0,0,0,8,2.4,14.39,14.39,0,0,0,12-6.4,65,65,0,0,1,54-28.8,14.4,14.4,0,0,0,0-28.8,93.84,93.84,0,0,0-77.9,41.6A14.44,14.44,0,0,0,543.7,146.7Z" transform="translate(0 0)"></path><path d="M963.5,421.6c-9.4-9.7-21.2-14.8-35.6-14.8-11.7,0-24.2,3.1-39.5,10.5-45.3,24.2-110.1,58.3-152.5,80.4l.7-10.8c.1-.7.1-2.8.1-3.5,0-56.1-44.8-104.6-99.9-104.6H101.6C47.5,378.7,0,432,0,488.1V864.8c0,54,45.6,90.4,101.6,90.4H636.8c55.6,0,99.1-39.6,99.8-93.9l-1.5-24c38.3,19.2,97.8,50,152.9,79.1a28.13,28.13,0,0,0,4.7,2.1c15,4.6,26.9,7.8,38.5,7.9,20.5-.2,33-10.2,39.1-18.6,7.2-9.9,9.7-22.7,9.7-40V478.4C980,466.9,981.4,439.9,963.5,421.6ZM924,867c-4-1-8.3-2.3-11.3-3.2-193.8-102-200.6-102.2-209.1-102.2a28.62,28.62,0,0,0-21,8.7,27.6,27.6,0,0,0-7.8,20.7l4.3,69.7c-.4,22.3-18.8,36.8-42.3,36.8H101.6c-24.5,0-44-10.4-44-32.7V488.1c0-24.4,21.5-51.7,44-51.7H636.8c22.6,0,41.7,22.6,42.2,46.1l-4.2,62.2a28.78,28.78,0,0,0,7.6,21.7,29.15,29.15,0,0,0,21.1,9.2c9.4,0,11.9,0,210.9-106.5a53.47,53.47,0,0,1,9.1-3.6,88.6,88.6,0,0,1,.5,12Z" transform="translate(0 0)"></path><path d="M736.6,861.2a2.72,2.72,0,0,0,0-.9Z" transform="translate(0 0)"></path><path d="M261.1,465.1H138.7c-28.9,0-52.2,35.7-52.2,62.3v73.2a14.4,14.4,0,0,0,28.8,0V527.5c0-13.4,12.9-33.5,23.4-33.5H261.1a14.45,14.45,0,0,0,0-28.9Z" transform="translate(0 0)"></path><path d="M333.2,465.2H318.8a14.4,14.4,0,0,0,0,28.8h14.4a14.4,14.4,0,1,0,0-28.8Z" transform="translate(0 0)"></path></svg>