<svg data-name="Layer 1" xmlns="http://www.w3.org/2000/svg" viewBox="0 0 772.14 989.99"><path d="M765,97.85c-3.28-3.41-5.76-5.55-13.9-6.39-7.07-.74-19.43-.74-44.07-.74H663.26V56c0-40.3,0-42-7.12-48.88a21.52,21.52,0,0,0-32,0C617,14,617,15.73,617,56V90.72H155.17V56c0-40.3,0-42-7.12-48.88a21.52,21.52,0,0,0-32.05,0c-7.12,6.84-7.12,8.58-7.12,48.88V90.73H65.11c-24.64,0-37,0-44.07.74-8.14.84-10.62,3-13.9,6.39L0,104.71V340.8l7.13,6.85c3.28,3.41,5.76,5.55,13.91,6.39,7.06.74,19.43.74,44.07.74h43.77V508.09H74.19c-40.35,0-42,0-48.91,7.15a21.65,21.65,0,0,0,0,32l6.86,7.15h153.2l79,90.38c73.25,83.77,83.35,95.84,84.29,97.14l1.72,2.3L258.92,848.89C170.4,950,163.32,959.41,163.32,967c0,12,11.14,22.92,23.37,22.92.44,0,.82,0,1.18.06s1,.06,1.47.06c4.75,0,8-2.18,18.1-12.83,10.95-11.62,31.24-34.92,71.66-81.32l21.14-24.27c46.05-52.84,72.49-82.8,81.3-92.47,9.85,10.78,40.69,45.68,81.28,92.47l20.88,24c40.55,46.56,60.9,69.93,71.89,81.59s14,13.22,19.6,12.81c.36,0,.74-.06,1.18-.06,12.23,0,23.37-10.92,23.37-22.92,0-7.55-7.08-17-95.59-118.06L412.68,744.2l1.71-2.29c.95-1.3,11.05-13.37,84.31-97.15l79-90.38H740l6.84-7.12a21.54,21.54,0,0,0,0-32.06c-6.85-7.12-8.58-7.12-48.89-7.12H663.26V354.76H707c24.64,0,37,0,44.07-.74,8.14-.84,10.62-3,13.9-6.39l7.14-6.85V104.7ZM493.89,580.09c-12.53,14.36-28.5,32.65-45.58,52.2-31.87,36.48-58.05,65.6-66.77,74.67-8.71-9.07-34.89-38.18-66.77-74.67-17.07-19.53-33-37.81-45.54-52.16l-21.66-24.82c14.87-.89,55.51-.93,134-.93s119.1,0,134,.94C511,560.52,503.44,569.13,493.89,580.09Zm123.08-72H155.17V354.77H617Zm108.87-199.6H46.3V137H725.84Z" transform="translate(0 0)"></path></svg>