<svg id="Icon" xmlns="http://www.w3.org/2000/svg" viewBox="0 0 64.5 48.5"><path d="M28.25,29h-23A1.25,1.25,0,0,0,4,30.25v13A1.25,1.25,0,0,0,5.25,44.5H21.54a1.23,1.23,0,0,0,.76-.26L29,39.11a1.25,1.25,0,0,0,.49-1V30.25A1.25,1.25,0,0,0,28.25,29ZM27,37.5,21.12,42H6.5V31.5H27Z"></path><path d="M64.49,26.21a.92.92,0,0,0,0-.16l-4-25a1.25,1.25,0,0,0-1.23-1h-14A1.25,1.25,0,0,0,44,1.25v6A1.25,1.25,0,0,0,45.25,8.5h7.89L55.78,25H8.72L11.36,8.5h7.89A1.25,1.25,0,0,0,20.5,7.25v-6A1.25,1.25,0,0,0,19.25,0h-14A1.25,1.25,0,0,0,4,1.05l-4,25a.92.92,0,0,0,0,.16s0,0,0,0v21A1.25,1.25,0,0,0,1.25,48.5H22.3a3.24,3.24,0,0,0,2-.66l7.38-5.34h1.2l7.35,5.32a3.29,3.29,0,0,0,2,.68h21a1.25,1.25,0,0,0,1.25-1.25v-21S64.49,26.23,64.49,26.21Zm-9-19.16a1.25,1.25,0,0,0-1.23-1H46.5V2.5H58.18L61.78,25H58.32ZM6.32,2.5H18V6H10.29a1.25,1.25,0,0,0-1.23,1L6.18,25H2.72ZM62,46H42.2a.86.86,0,0,1-.51-.18L34,40.24a1.21,1.21,0,0,0-.73-.24h-2a1.21,1.21,0,0,0-.73.24l-7.74,5.6a.79.79,0,0,1-.48.16H2.5V27.5H62Z"></path><path d="M35,30.25v7.87a1.25,1.25,0,0,0,.49,1l6.71,5.13a1.23,1.23,0,0,0,.76.26H59.25a1.25,1.25,0,0,0,1.25-1.25v-13A1.25,1.25,0,0,0,59.25,29h-23A1.25,1.25,0,0,0,35,30.25Zm2.5,1.25H58V42H43.38L37.5,37.5Z"></path></svg>