<svg data-name="Layer 1" xmlns="http://www.w3.org/2000/svg" viewBox="0 0 993 993.69"><path d="M534,684c39.22-40.45,76.34-98.19,107.38-167,30.94-68.61,56-148.48,72.32-231,11.76-59.15,16.05-96.22,17-146.89.8-36.29.35-48-2.24-59.6-9-42.73-32.48-65.11-78.61-74.83C634.79,1.36,623.53.5,592.44.31,547.6.12,542.91,1.09,492.19,21.1c-54,21.4-79.1,26.59-128,26.39-46.19,0-73.26-5.76-125.91-26.78C192.79,2.63,185.24.9,148.54.11c-16.81-.36-37.84.19-46.9,1.22h0C72,4.91,51.09,11.85,35.87,23.19c-15.49,11.55-25.73,28-32.21,51.73-4.9,17.77-4.9,82.52,0,123.7C15.78,303.37,42.91,407.34,82.1,499.3c39.39,92.42,87.27,163.94,138.45,206.81,46.88,39.5,93.19,58.29,144.35,58.29q9.11,0,18.42-.79C435.73,759.25,487.82,731.71,534,684ZM681.1,203.37c-24.59,192.93-99,373-189.43,458.7-18.62,17.52-37.72,30.83-58.32,40.66-27.75,12.94-36.15,14.73-69.13,14.73-28.1-.19-29.39-.36-45.88-6-50.94-17.54-92.81-54.14-135.76-118.68-54.69-82-99.36-200.34-122.53-324.59-13.16-71-18.68-143-13.4-175.19C51,65.9,61,55.76,89.35,49.62c14.4-3.07,35.16-4.73,53.62-4.73,12.73,0,24.36.79,32.08,2.43,6.56,1.43,27.18,8.52,46,15.81,62.51,24.54,89.63,30.18,145.08,30.18,53.63,0,84.28-6.37,142.59-29.61,45.35-18,54.73-19.84,91.13-18.35,44.68,1.82,64.33,7.43,75,21.39A58.9,58.9,0,0,1,682.48,81C685.73,91.75,685.43,169.14,681.1,203.37Z" transform="translate(0.01 0)"></path><path d="M320.82,263.65c0-16.39-10.23-31.81-27.71-43.59v-.57h-.87a124.62,124.62,0,0,0-36.6-15.8c-14.63-4.07-48.59-5.71-61.58-3-14.35,3-31.37,12.66-38.81,22-6.07,7.31-7.36,12.67-8,21.92-.67,10.89.35,15.06,6,24.75,14.68,25.37,52.77,42.55,94.82,42.76C293,312.15,320.82,293.56,320.82,263.65Z" transform="translate(0.01 0)"></path><path d="M548.47,204c-15-5.08-47.15-6.22-64.87-2.3h0c-18,4.11-29.19,8.42-42.53,16.48-14.62,8.68-23.34,18.4-28.27,31.47-5.22,13.76-3.19,27.54,5.7,38.8,12.22,15.47,35.13,24.2,62,24.2a131.16,131.16,0,0,0,16.91-1.12c47.21-6.12,79.66-27.61,86.81-57.47C588.58,235.63,571.57,211.77,548.47,204Z" transform="translate(0.01 0)"></path><path d="M485.29,458.32a20.29,20.29,0,0,0-20.13,5.49l-.25.29c-2.4,2.82-8.24,10.27-13,16.87-30.09,41.52-90.22,53.7-139.89,28.3-11-5.49-31.33-24.17-37.6-34.51-5.83-10.05-12.7-15.79-20.41-17.05-4.29-.7-10.86-.25-17.83,5.87a20.24,20.24,0,0,0-7.52,14.69c-.54,10.85,7.2,24.06,25.12,42.86,20,20.77,44.23,35.38,70.07,42.23,11,3.07,27.14,4.69,42.63,4.69,10.91,0,21.48-.8,29.67-2.48,33.18-6.83,55.29-18.67,78.83-42.21,11.72-11.59,30.83-33.25,27.05-48A23.53,23.53,0,0,0,485.29,458.32Z" transform="translate(0.01 0)"></path><path d="M989.56,303.53c-6.19-22.29-16.3-38.69-30.91-50.13S924.84,235,898.2,231.5c-21.54-2.77-61.71-3.88-76.76-2.12l-.11,0a215.51,215.51,0,0,0-24.92,5c-15.71,4.56-58.72,21.92-64.19,28-4.85,5.37-6.25,13.24-3.74,21.06s8.59,13.78,15.81,15.35c6.36,1.38,14.57-1.21,36-9.71,15.44-6.08,30.16-11.22,34.18-12.18,11.46-2.64,67.78-2.22,83.69.63,37.35,6.73,47.57,19.52,49.71,62.21,4.4,88.13-24.78,234.61-69.38,348.3-31.69,80.93-71.14,147.31-114.11,192-31,32.49-65,54.35-98.26,63.23-19.63,5.32-55.08,5.79-73,1-59.51-16-118.63-67.41-162.17-141-9-15.31-16.37-25.08-25.69-26.52-7.58-1.17-13.9,3.59-18,7.29-12.91,11.35-5.19,26.64,6.24,45.42,21,34.84,46.51,66.82,73.78,92.46,27.41,25.79,56.78,45.35,84.93,56.57,25.65,10.2,51.34,15.32,76.73,15.32a187.09,187.09,0,0,0,33.87-3.08c36.11-6.62,71.56-24,105.36-51.61,52.56-43,101.48-114.73,141.49-207.47,39.83-92.35,67.39-197.5,79.69-304.11C994.11,385.75,994.22,321,989.56,303.53Z" transform="translate(0.01 0)"></path><path d="M840.07,495.41c5.66-11.12,5.61-26.48-.15-38.22l-.07-.14c-11-21.13-47.57-33.16-85.07-28-35.95,4.68-66.84,21.64-78.7,43.25-5.94,11-7.27,22.4-3.85,33,3.37,10.41,11.15,19.28,22.5,25.66,12.52,7,28.82,10.56,46.53,10.56A148.64,148.64,0,0,0,784.05,535C811,526.82,831.4,512.4,840.07,495.41Z" transform="translate(0.01 0)"></path><path d="M668.59,691.94C653,688,625.3,685.6,612.79,687h0c-35.77,4.18-66.06,17.73-90,40.28-12.15,11.48-32.72,34.4-32.72,47.5,0,9.48,8.19,20.17,17.23,22.42a21.57,21.57,0,0,0,5.2.65c10.31,0,17.5-8.08,23.77-17.11C551,759,574.42,742.29,598.88,736c14-3.71,44.21-3.72,57.83,0,24.3,6.48,47.7,23.09,61.07,43.3,9.43,14.44,18.32,22.17,33.45,16.07,5.89-2.46,10.06-6.59,12-11.94,2.22-6,1.53-12.85-2-19.94C746.3,732.36,706.48,701.62,668.59,691.94Z" transform="translate(0.01 0)"></path></svg>