<svg data-name="Layer 1" xmlns="http://www.w3.org/2000/svg" viewBox="0 0 995.01 702.6"><path d="M994.55,119.39c-.18-33.17-.41-59.25-.68-77.53-.47-31.47-.81-32.13-1.83-34.12l-.18-.32C989.07,2.6,984,2.06,976,1.57,967,1,950.23.68,920.07.46,858.13,0,737.58,0,497.41,0S136.68,0,74.73.46C44.57.68,27.86,1,18.84,1.57c-8,.49-13.1,1-15.89,5.85l-.11.2C1.53,10,.94,11.14.46,97,.15,152.45,0,236.11,0,352.75,0,489.84.08,579.18.49,630.22c.19,24,.45,39.71.82,49.45.49,12.73,1,16.25,4.16,18.92,2.45,2,2.83,2.31,30,2.79,17.31.3,44,.53,81.46.71,73.3.35,190.76.51,380.85.51,212.35-.09,346.11-.18,413.05-.65,31.56-.23,50.44-.54,61.22-1,11.72-.51,16.07-1,18.91-4.79l.08-.11c1.77-2.43,2-2.69,2.46-34.5.29-18.13.55-44.07.78-77.13.41-61.47.66-144,.71-232.34S994.89,181.05,994.55,119.39ZM480.14,668H353.86V613.33H479.67l.16,27.4ZM353.86,98.72V34.36h125.5c.39,2.66.68,17.79.47,37.88l-.45,25.61-62.77.52Zm160.72,0V34.36H639v64.4ZM639,613.33V668H514.58V613.33ZM757.11,133.11l-.38,222.33L756.17,578l-257.23.56L241.56,579V133.11Zm42.61,480.22V668H673.36V613.33ZM673.36,98.76V34.36H799.72v64.4Zm160.71,0V34.36H960.43v64.4ZM791.48,577V133.15l84,.36,84,.53.56,221.44h0L960.43,577Zm168.88,91H834.08V612l125.51.35.46,27.87ZM193.14,98.76V34.36H319.5v64.4ZM319.5,613.33V668H193.14V613.33ZM34.36,98.76V34.36H158.78v64.4ZM35.11,134c12.42-.84,47.68-.74,86-.54l85.11.53V578H35.31l-.56-220C34.58,245.05,34.73,156.35,35.11,134ZM158.78,613.33V668H34.36V613.33Z" transform="translate(0 0)"></path></svg>