<svg data-name="Layer 1" xmlns="http://www.w3.org/2000/svg" viewBox="0 0 979.9 762.6"><path d="M266.4,391.1c-37,0-67.8,8.4-92.3,25.9-7,4.9-13.3,7.7-16.8,7.7-4.2,0-7.7-2.1-10.5-7-4.9-7-7-17.5-7-32.2q0-100.8,67.2-193.1C251.8,130.1,314.1,84.7,393.1,56V0Q188.5,74.4,94.4,195.8,0,317.45,0,471.4c0,88.2,23.1,158.8,69.8,212.9,46.2,52.4,101.4,78.3,165.1,78.3,54.6,0,100.7-19.6,139.2-58.1s57.4-83.2,57.4-134.3q0-73.5-50.4-125.9C348.2,408.6,309.8,391.1,266.4,391.1Z" transform="translate(0 0)"></path><path d="M929.5,444.3c-32.9-35.7-71.3-53.2-114.7-53.2-37,0-67.8,8.4-92.3,25.9-7,4.9-13.3,7.7-16.8,7.7-4.2,0-7.7-2.1-10.5-7-4.9-7-7-17.5-7-32.2q0-100.8,67.2-193.1C800.2,130.1,861.8,84.7,940.8,56V0C804.4,49.6,705.1,114.7,643.4,198.2Q549.05,319.85,549,473.8c0,88.1,23,158,69.2,210.5s101.4,78.3,165.1,78.3c54.6,0,100.7-19.6,139.2-58.1s57.4-83.2,57.4-134.3Q979.9,496.7,929.5,444.3Z" transform="translate(0 0)"></path></svg>