<svg data-name="Layer 1" xmlns="http://www.w3.org/2000/svg" viewBox="0 0 990 990"><path d="M862.5,0h-735C52.43,0,0,52.43,0,127.5v735C0,937.57,52.43,990,127.5,990h735C937.57,990,990,937.57,990,862.5v-735C990,52.43,937.57,0,862.5,0ZM829.16,51c65.17,3.35,110,50.64,110,117.3L939.11,245H906.69ZM624.89,50.8H736.62L814.31,245H702.58Zm-204.2,0H532.42L610.11,245H498.38Zm-204.11,0H328.31L405.92,245H294.19ZM50.8,245V168.3c0-53,29-94.89,76.07-110.46L201.72,245Zm888.4,50.8-.1,525.8c0,69.18-48.32,117.5-117.5,117.5H168.3c-69.18,0-117.5-48.32-117.5-117.5V295.8Z"></path><polygon points="354.7 404.46 354.7 830.54 708.9 617.5 354.7 404.46"></polygon></svg>