<svg id="Layer_1" data-name="Layer 1" xmlns="http://www.w3.org/2000/svg" viewBox="0 0 178.66 34.75"><path d="M50.78,23a6,6,0,0,1-2.52.48A6,6,0,0,1,46,23.05a5.05,5.05,0,0,1-1.74-1.21A5.56,5.56,0,0,1,43.12,20a7.18,7.18,0,0,1-.39-2.42,6.26,6.26,0,0,1,.43-2.32,6,6,0,0,1,1.16-1.86A5.43,5.43,0,0,1,46,12.11a4.81,4.81,0,0,1,2-.43,5.35,5.35,0,0,1,2.39.51,9.79,9.79,0,0,1,1.66,1l1.43-3.43a11.39,11.39,0,0,0-2.33-1.07,9.69,9.69,0,0,0-3.27-.5,9.21,9.21,0,0,0-3.65.7,8.1,8.1,0,0,0-2.84,2,8.73,8.73,0,0,0-1.82,3A11,11,0,0,0,39,17.73a10,10,0,0,0,.62,3.52,8.81,8.81,0,0,0,1.82,2.93,8.38,8.38,0,0,0,2.9,2,10.47,10.47,0,0,0,3.88.79,9.62,9.62,0,0,0,2.6-.3,10.41,10.41,0,0,0,2-.75,7.21,7.21,0,0,0,1.11-.68L52.38,22A5.74,5.74,0,0,1,50.78,23Z"/><rect x="58.01" y="8.38" width="3.63" height="18.4"/><polygon points="79.88 19.46 67.03 7.65 66.88 7.65 66.88 26.77 70.56 26.77 70.49 15.9 83.36 27.52 83.46 27.52 83.46 8.38 79.81 8.38 79.88 19.46"/><polygon points="92.33 19.3 100.23 19.3 100.23 15.8 92.33 15.8 92.33 11.88 101.26 11.88 101.26 8.38 88.71 8.38 88.71 26.77 101.61 26.77 101.61 23.27 92.33 23.27 92.33 19.3"/><polygon points="115.22 20.86 105.88 7.63 105.86 7.63 105.86 26.77 109.36 26.77 109.36 18.54 115.13 26.52 115.18 26.52 121.18 18 121.18 26.77 124.81 26.77 124.81 7.63 124.76 7.63 115.22 20.86"/><path d="M136.28,7.65,128,26.78h3.58l1.5-3.6h6.1l1.42,3.6h4.2l-8.3-19.13Zm-1.95,12.48,1.87-4.49L138,20.13Z"/><polygon points="145.21 11.88 149.51 11.88 149.51 26.77 153.13 26.77 153.13 11.88 157.61 11.88 157.61 8.38 145.21 8.38 145.21 11.88"/><path d="M177.92,14a9.52,9.52,0,0,0-2-3,9.72,9.72,0,0,0-3-2.06,9.21,9.21,0,0,0-7.28,0,9.36,9.36,0,0,0-3,2.06,9.77,9.77,0,0,0-2,3,9.11,9.11,0,0,0-.72,3.6,9.25,9.25,0,0,0,.72,3.65,9.57,9.57,0,0,0,2,3,9.39,9.39,0,0,0,10.26,2,9.57,9.57,0,0,0,3-2,9.32,9.32,0,0,0,2-3,9.09,9.09,0,0,0,.74-3.65A9,9,0,0,0,177.92,14Zm-3.44,5.89a5.91,5.91,0,0,1-1.17,1.87,5.25,5.25,0,0,1-3.95,1.72A5.6,5.6,0,0,1,167.1,23a5.68,5.68,0,0,1-1.83-1.27,5.87,5.87,0,0,1-1.22-1.87,5.81,5.81,0,0,1-.44-2.29,6.29,6.29,0,0,1,.42-2.32,6,6,0,0,1,1.2-1.89,5.63,5.63,0,0,1,1.8-1.26,5.52,5.52,0,0,1,2.23-.45,5.44,5.44,0,0,1,2.22.45,5.38,5.38,0,0,1,1.79,1.26,6,6,0,0,1,1.2,1.89,6.1,6.1,0,0,1,.44,2.32A6,6,0,0,1,174.48,19.89Z"/><path d="M24.26,14.86V11.48H22.61a5.26,5.26,0,0,0-.83-7.54,6,6,0,0,0-7.61.28A19.33,19.33,0,0,0,13,2.53,6.94,6.94,0,0,0,8.35.06,1.15,1.15,0,0,1,8.18,0H6.76A15.9,15.9,0,0,0,5.21.37a6.61,6.61,0,0,0-3,10.88l.19.21H0V27.68H8.54c-.11.16-.17.26-.25.36l-4.7,6.42-.19.29H6a.81.81,0,0,1,.1-.21l4.73-6.45a2.17,2.17,0,0,1,.17-.21v6.87h2.14V28l.07,0,5,6.81h2.57c-.06-.1-.11-.2-.17-.29q-2.36-3.2-4.69-6.4l-.25-.35h8.53V24.32L30.07,26V13.18ZM18.15,4.74A3.44,3.44,0,0,1,21.69,8.1a3.43,3.43,0,0,1-3.51,3.37,3.46,3.46,0,0,1-3.57-3.33A3.47,3.47,0,0,1,18.15,4.74ZM7.54,2a4.86,4.86,0,0,1,4.93,4.73,4.86,4.86,0,0,1-5,4.71A4.83,4.83,0,0,1,2.54,6.73,4.83,4.83,0,0,1,7.54,2Zm14.54,23.6H2.15V13.53H22.08Zm5.86-2.39L24.26,22.2V17l3.68-1.06Z"/><path d="M16.53,18.6H7.7v2h8.83Z"/></svg>